<?xml version="1.0" standalone="no"?>
<!DOCTYPE svg PUBLIC "-//W3C//DTD SVG 20010904//EN"
 "http://www.w3.org/TR/2001/REC-SVG-20010904/DTD/svg10.dtd">
<svg version="1.0" xmlns="http://www.w3.org/2000/svg"
 width="483.000000pt" height="601.000000pt" viewBox="0 0 483.000000 601.000000"
 preserveAspectRatio="xMidYMid meet">

<g transform="translate(0.000000,601.000000) scale(0.100000,-0.100000)"
fill="#000000" stroke="none">
<path d="M2135 5989 c-598 -32 -1276 -187 -1870 -426 l-120 -49 -12 -54 c-7
-30 -26 -134 -42 -230 -184 -1074 -44 -2069 424 -3008 342 -687 842 -1311
1520 -1898 148 -129 382 -314 395 -314 4 0 63 43 131 96 1713 1332 2491 3098
2209 5009 -25 168 -67 387 -77 395 -14 13 -265 108 -447 170 -551 186 -1059
284 -1601 310 -234 11 -294 11 -510 -1z m760 -284 c478 -48 979 -174 1475
-372 63 -25 118 -51 122 -56 9 -15 64 -310 82 -442 76 -553 46 -1108 -89
-1628 -257 -994 -862 -1883 -1933 -2841 l-133 -119 -22 20 c-12 11 -76 67
-142 125 -421 369 -786 758 -1075 1143 -533 712 -840 1442 -935 2225 -23 186
-31 568 -16 771 19 264 92 724 119 751 14 14 298 122 466 178 227 75 420 126
636 170 252 51 418 72 740 94 116 8 552 -4 705 -19z"/>
<path d="M1971 5535 c-401 -41 -762 -121 -1166 -258 -213 -72 -315 -117 -320
-140 -113 -538 -123 -1101 -29 -1617 64 -350 178 -693 343 -1035 260 -538 611
-1020 1121 -1539 195 -199 487 -469 500 -464 23 8 247 216 425 393 359 357
610 656 842 1005 411 615 643 1218 730 1895 22 176 25 704 5 890 -20 180 -72
478 -85 491 -7 7 -79 37 -162 67 -429 158 -809 252 -1225 303 -185 23 -790 28
-979 9z m297 -277 l2 -187 123 -3 122 -3 3 -42 3 -43 -165 0 -166 0 0 236 0
235 38 -3 37 -3 3 -187z m-167 163 c24 -19 24 -21 24 -221 0 -195 -1 -202 -22
-219 -29 -24 -264 -57 -292 -41 -27 14 -33 78 -29 272 3 142 5 159 23 177 18
18 68 28 261 50 7 0 22 -8 35 -18z m533 3 c3 -9 6 -114 6 -235 l0 -219 -40 0
-40 0 0 235 0 235 34 0 c22 0 36 -6 40 -16z m270 2 c133 -17 148 -28 154 -114
4 -55 3 -60 -19 -65 -52 -14 -59 -10 -59 37 0 50 2 49 -133 62 l-68 7 3 -149
3 -149 85 -11 c47 -7 91 -13 98 -13 8 -1 12 15 12 49 0 28 2 50 5 50 3 0 21
-7 40 -14 34 -15 35 -16 35 -73 0 -76 -18 -103 -68 -103 -59 1 -228 27 -251
39 -31 17 -36 49 -36 249 0 236 -12 224 199 198z m396 -51 c167 -35 170 -37
170 -80 0 -23 -5 -35 -14 -35 -7 0 -63 11 -124 25 -61 14 -114 25 -117 25 -3
0 -5 -24 -3 -52 l3 -53 70 -15 70 -15 3 -43 c2 -23 0 -42 -5 -42 -4 0 -33 7
-63 15 -81 22 -80 23 -80 -44 l0 -58 130 -28 130 -29 0 -46 0 -47 -162 37
-163 36 -5 235 c-3 129 -4 238 -2 242 2 4 11 6 20 3 10 -3 73 -16 142 -31z
m-1593 -15 c15 -29 17 -177 3 -214 -12 -33 -34 -43 -154 -75 l-101 -27 -3 -92
c-3 -89 -4 -93 -28 -102 -56 -22 -54 -30 -54 230 l0 240 28 7 c15 3 74 19 132
34 127 33 160 33 177 -1z m649 -544 c17 -13 19 -27 19 -140 0 -139 -5 -152
-64 -165 l-31 -6 56 -80 c85 -121 83 -115 25 -115 l-49 0 -58 95 c-31 53 -61
98 -65 101 -5 2 -20 2 -34 -2 -25 -6 -25 -8 -25 -99 0 -98 -3 -105 -51 -105
-19 0 -19 9 -17 258 l3 257 85 6 c157 10 186 9 206 -5z m382 -2 c20 -4 23 -10
20 -47 l-3 -42 -67 -3 -68 -3 0 -204 0 -205 -35 0 -35 0 0 210 0 210 -65 0
-65 0 0 48 0 48 148 -3 c81 -2 157 -6 170 -9z m144 -71 c16 -37 48 -105 70
-152 l40 -86 65 138 c62 129 68 137 95 137 l28 0 0 -255 c0 -140 -3 -255 -7
-255 -5 0 -18 3 -30 6 -23 6 -23 8 -23 183 l0 176 -39 -85 c-57 -128 -91 -191
-99 -186 -4 2 -34 65 -67 140 l-60 136 -3 -171 -2 -170 -28 3 -27 3 -3 253 -2
252 30 0 c29 0 34 -5 62 -67z m-941 -193 c43 -124 78 -231 79 -237 0 -7 -11
-14 -25 -14 -14 -1 -31 -2 -37 -3 -7 -1 -20 21 -28 47 -9 27 -20 48 -25 49
-27 0 -141 -15 -158 -21 -13 -5 -26 -27 -36 -61 -15 -48 -20 -55 -48 -61 -18
-3 -34 -4 -36 -2 -3 2 17 72 44 156 27 84 65 203 85 265 l35 113 36 -3 35 -3
79 -225z m1454 181 l120 -28 3 -41 c4 -49 6 -49 -106 -22 -116 28 -112 29
-112 -33 l0 -54 63 -14 62 -14 3 -44 3 -44 -33 7 c-18 4 -48 10 -65 13 l-33 6
0 -60 0 -59 98 -23 c53 -12 105 -25 115 -28 13 -3 17 -15 17 -50 l0 -46 -37 6
c-20 4 -88 18 -150 33 l-113 27 0 254 0 253 23 -5 c12 -3 76 -18 142 -34z
m-1735 -17 c8 -22 11 -73 8 -131 -4 -87 -6 -98 -29 -117 -14 -12 -52 -28 -85
-35 -32 -7 -76 -17 -96 -22 l-38 -10 0 -98 c0 -94 -1 -99 -22 -105 -50 -13
-49 -22 -46 246 l3 253 110 26 c61 15 127 27 147 28 33 1 37 -2 48 -35z m2065
-259 l110 -214 3 164 c1 91 4 165 7 165 2 0 16 -5 30 -12 l25 -11 0 -253 0
-253 -22 7 c-17 6 -52 65 -135 228 l-112 219 -1 -167 c0 -93 -2 -168 -5 -168
-2 0 -16 5 -30 12 l-25 11 0 253 0 254 23 -11 c15 -7 57 -78 132 -224z m-2425
180 l0 -44 -107 -34 -108 -34 -3 -57 c-2 -31 -1 -56 1 -56 2 0 29 9 60 19 30
11 58 17 61 14 3 -4 6 -23 6 -43 0 -36 -1 -36 -62 -56 l-63 -20 -3 -62 c-2
-34 -2 -62 0 -62 2 0 51 16 111 34 l107 34 0 -48 0 -49 -130 -41 c-71 -22
-137 -43 -145 -46 -13 -5 -15 25 -15 248 l0 254 143 47 c78 25 143 46 145 47
1 0 2 -20 2 -45z m-409 -115 c79 -43 76 -308 -5 -427 -28 -42 -47 -56 -146
-105 -63 -32 -118 -58 -122 -58 -5 0 -8 113 -8 251 l0 250 103 49 c104 49 143
58 178 40z m3219 -75 l150 -75 0 -45 0 -45 -60 30 c-33 16 -62 30 -65 30 -3 0
-5 -92 -5 -204 l0 -204 -30 11 -30 11 -2 211 -3 210 -62 30 c-63 29 -63 29
-63 72 0 24 5 43 10 43 6 0 78 -34 160 -75z m-1250 -265 c383 -37 726 -123
963 -242 l78 -39 -7 -37 c-150 -883 -534 -1674 -1146 -2357 -69 -77 -174 -187
-232 -245 l-106 -105 -71 70 c-115 114 -332 353 -443 489 -402 492 -690 1042
-862 1646 -49 170 -117 489 -112 523 2 14 24 31 68 54 259 133 651 223 1095
253 155 10 628 4 775 -10z m1135 -770 l37 -99 100 76 c63 48 98 68 95 57 -4
-11 -9 -32 -13 -47 -5 -20 -31 -47 -90 -91 l-84 -63 59 -17 c54 -15 58 -18 53
-41 -2 -14 -8 -28 -13 -31 -5 -3 -68 12 -140 32 -129 37 -130 37 -124 63 9 36
10 36 62 23 25 -7 48 -10 51 -8 2 3 -10 42 -28 86 -30 74 -32 85 -21 121 6 21
13 39 15 39 2 0 20 -45 41 -100z m-3056 -154 c17 -21 71 -196 71 -233 0 -26
-6 -36 -30 -48 -39 -20 -45 -19 -58 10 -16 34 -16 34 12 45 l24 9 -24 78 c-14
42 -27 80 -30 82 -2 3 -42 -7 -88 -22 l-83 -27 25 -85 c23 -77 28 -85 46 -79
37 11 41 9 44 -23 3 -29 0 -33 -37 -44 -32 -9 -44 -9 -55 0 -14 12 -57 135
-76 219 -11 47 10 67 110 101 96 33 132 37 149 17z m3024 -101 c45 -19 53 -35
40 -80 l-10 -33 66 39 c36 21 67 37 68 35 2 -1 -3 -19 -10 -39 -10 -32 -22
-42 -83 -71 -95 -45 -112 -85 -46 -106 50 -16 54 -22 43 -53 l-10 -26 -128 45
c-70 25 -129 47 -132 49 -5 5 55 176 77 220 25 51 45 54 125 20z m-2896 -244
l11 -30 -131 -56 c-123 -53 -132 -55 -144 -38 -8 10 -12 24 -11 32 3 12 225
117 253 120 6 1 16 -12 22 -28z m2805 -71 c51 -22 99 -47 107 -54 20 -21 8
-65 -52 -186 -52 -104 -52 -105 -87 -104 -19 1 -74 20 -122 42 -80 37 -88 44
-88 69 0 34 94 243 117 261 23 17 20 17 125 -28z m-2711 -152 c66 -132 70
-143 53 -155 -27 -20 -31 -17 -58 42 -14 30 -27 55 -31 55 -3 0 -51 -23 -107
-51 -95 -48 -103 -50 -115 -33 -7 10 -13 24 -13 31 0 7 47 36 104 65 l104 52
-29 57 c-27 54 -28 59 -11 68 9 6 20 11 24 11 5 0 40 -64 79 -142z m2498 -231
c22 -66 25 -69 77 -95 57 -28 62 -37 40 -67 -14 -19 -15 -19 -69 9 l-55 29
-98 -26 c-54 -15 -100 -25 -102 -22 -2 2 5 19 17 38 19 31 29 36 86 48 38 7
65 18 65 25 0 7 -9 37 -21 67 -20 52 -20 56 -4 87 l17 34 13 -30 c6 -16 22
-60 34 -97z m-2383 -8 c14 -28 14 -35 -7 -96 -25 -76 -24 -78 57 -88 44 -5 57
-12 75 -36 12 -17 19 -33 16 -36 -3 -3 -50 4 -103 16 -82 17 -101 19 -118 8
-12 -7 -38 -23 -58 -36 l-37 -22 -15 30 -16 30 55 33 c30 18 57 40 59 48 3 8
17 54 32 102 14 48 30 85 35 82 5 -3 16 -19 25 -35z m2218 -353 c86 -118 93
-131 77 -150 -9 -11 -28 -9 -111 9 -55 12 -100 20 -100 19 0 -2 23 -36 51 -75
61 -86 63 -90 47 -111 -12 -15 -24 -14 -152 16 -77 18 -141 37 -143 42 -1 5 4
18 12 28 15 20 16 20 108 -1 50 -11 93 -20 95 -18 2 2 -22 38 -53 81 -53 75
-55 79 -38 95 17 17 22 17 102 -2 46 -11 88 -18 92 -17 5 2 -17 36 -47 76 -46
61 -53 75 -44 92 6 11 15 20 19 20 5 0 43 -47 85 -104z m-1849 -227 c79 -104
96 -138 77 -165 -10 -14 -142 -118 -167 -131 -11 -6 -28 -8 -37 -4 -20 7 -174
202 -183 232 -4 11 -1 27 7 36 30 37 175 143 195 143 16 0 44 -29 108 -111z
m1515 -64 c10 -12 1 -29 -54 -97 l-66 -83 22 -19 c23 -18 23 -18 65 30 40 45
44 47 60 32 15 -16 14 -20 -22 -64 l-38 -46 24 -19 c13 -10 27 -19 30 -19 3 0
34 36 69 80 64 81 78 91 99 66 9 -11 -7 -36 -75 -120 -58 -73 -91 -106 -100
-102 -8 3 -60 40 -114 82 -86 66 -98 79 -87 93 42 58 162 201 168 201 3 0 12
-7 19 -15z m-1261 -246 c87 -93 93 -102 77 -117 -15 -15 -22 -11 -96 63 l-80
80 -25 -26 -26 -25 40 -46 c39 -44 40 -46 22 -62 -18 -17 -21 -15 -59 26 l-41
43 -40 -39 c-40 -39 -41 -39 -61 -21 -11 10 -20 21 -20 25 0 11 194 200 205
200 6 0 53 -45 104 -101z m1146 -80 c143 -111 143 -111 -112 -154 l-101 -18
71 -55 c40 -30 74 -56 76 -58 5 -5 -30 -44 -39 -44 -9 0 -204 158 -208 169 -8
24 36 40 171 61 l144 24 -47 35 c-82 63 -100 79 -100 88 0 11 21 33 33 33 4 0
55 -37 112 -81z"/>
<path d="M1945 5336 l-90 -11 -3 -151 -3 -151 93 13 c51 7 99 13 106 14 9 0
12 37 12 150 0 114 -3 150 -12 149 -7 -1 -53 -7 -103 -13z"/>
<path d="M1533 5277 l-83 -21 0 -63 c0 -35 3 -63 8 -63 4 1 45 11 92 24 95 26
109 41 96 109 -8 42 -4 42 -113 14z"/>
<path d="M2178 4733 l-48 -4 0 -70 0 -70 83 6 c45 4 86 11 90 15 4 4 7 34 5
66 l-3 59 -40 1 c-22 0 -61 -1 -87 -3z"/>
<path d="M1817 4660 c-16 -42 -56 -184 -53 -187 2 -2 29 0 60 3 57 7 57 7 50
37 -14 64 -52 161 -57 147z"/>
<path d="M1535 4648 c-22 -5 -57 -14 -77 -19 l-38 -10 0 -65 c0 -64 1 -66 23
-60 12 3 47 10 77 17 30 6 61 16 68 22 15 12 13 119 -3 123 -5 1 -28 -3 -50
-8z"/>
<path d="M738 4402 l-57 -27 -1 -157 c0 -87 2 -158 4 -158 2 0 28 11 58 24
100 44 136 102 137 221 1 124 -33 148 -141 97z"/>
<path d="M2383 4123 c15 -2 39 -2 55 0 15 2 2 4 -28 4 -30 0 -43 -2 -27 -4z"/>
<path d="M2394 3989 c-37 -41 -75 -53 -191 -59 -163 -10 -192 -37 -201 -185
-4 -74 -26 -145 -39 -131 -4 3 -16 29 -27 58 -53 132 -142 87 -176 -87 -14
-70 -27 -93 -80 -141 -29 -26 -44 -52 -60 -102 -12 -37 -35 -91 -51 -120 -56
-101 -60 -302 -8 -422 22 -50 22 -52 4 -104 l-18 -52 37 -77 c41 -84 60 -101
160 -148 36 -17 66 -33 66 -35 0 -3 -18 -22 -40 -43 -30 -28 -40 -46 -40 -69
0 -35 34 -81 84 -112 32 -19 34 -23 29 -60 -4 -30 -1 -45 12 -60 18 -19 33
-20 560 -20 429 0 545 3 559 13 19 14 24 49 13 82 -5 16 3 26 39 50 55 36 88
86 80 119 -3 13 -24 40 -47 60 -22 21 -39 39 -37 41 1 1 39 21 83 43 93 46
105 58 145 141 35 71 36 81 14 138 -16 40 -15 44 4 85 30 61 45 168 39 264 -4
68 -11 97 -45 171 -22 48 -45 106 -51 128 -7 27 -27 57 -60 89 -54 53 -64 73
-81 156 -14 72 -48 132 -83 144 -22 8 -31 6 -52 -14 -14 -13 -33 -46 -43 -72
-9 -26 -19 -48 -23 -48 -15 0 -32 61 -36 130 -5 84 -25 134 -65 163 -22 16
-50 22 -140 27 -116 6 -144 15 -189 56 l-26 24 -19 -21z m-4 -129 l0 -40 -64
0 c-36 0 -68 4 -71 10 -3 5 -20 3 -40 -7 -21 -10 -31 -20 -24 -24 8 -4 -9 -47
-51 -128 -60 -116 -62 -122 -46 -140 28 -31 106 -45 165 -31 27 6 58 20 69 30
19 18 19 19 -44 143 -72 141 -76 127 41 130 l60 2 0 -173 0 -173 -375 -144
c-206 -80 -378 -145 -383 -145 -4 0 0 14 9 32 9 17 27 63 40 100 18 52 34 79
71 116 37 35 52 60 62 97 32 123 42 155 49 155 4 0 19 -27 34 -60 31 -70 62
-86 106 -53 40 29 60 79 66 161 6 83 26 130 59 136 12 3 60 7 107 9 47 3 101
12 120 20 19 8 36 16 38 16 1 1 2 -17 2 -39z m220 2 c52 -2 103 -9 113 -14 28
-14 47 -70 47 -136 0 -40 7 -71 23 -102 47 -94 114 -90 152 8 11 28 23 52 28
52 11 0 27 -45 39 -110 13 -71 26 -95 82 -149 34 -33 50 -59 62 -100 9 -31 25
-73 36 -94 10 -21 18 -41 16 -42 -2 -2 -176 62 -386 142 l-382 146 0 168 c0
183 -1 179 63 179 18 0 49 -3 70 -6 l37 -7 -65 -124 c-63 -122 -64 -124 -45
-143 20 -20 80 -40 120 -40 35 1 97 25 121 46 17 15 17 19 5 33 -8 9 -37 63
-66 120 -39 79 -49 106 -39 112 15 9 14 11 -22 26 -16 7 -31 8 -40 2 -8 -5
-42 -9 -76 -9 l-63 0 0 39 0 40 38 -16 c21 -9 79 -18 132 -21z m-404 -289 c-5
-12 -106 -20 -106 -8 0 8 48 102 79 155 l26 45 3 -89 c2 -49 1 -95 -2 -103z
m114 -3 c0 -6 -22 -10 -50 -10 l-50 0 0 103 0 102 50 -93 c28 -51 50 -97 50
-102z m290 90 l0 -100 -50 0 c-30 0 -50 4 -50 11 0 12 91 189 97 189 2 0 3
-45 3 -100z m69 6 c28 -52 51 -97 51 -101 0 -3 -24 -5 -52 -3 l-53 3 -3 98
c-1 53 -1 97 2 97 2 0 27 -42 55 -94z m141 -380 c221 -85 406 -158 412 -164 5
-5 8 -47 6 -94 l-3 -86 -95 38 c-52 20 -236 92 -408 159 l-313 122 -92 -35
c-51 -19 -229 -87 -397 -151 -168 -65 -313 -120 -322 -122 -16 -5 -18 3 -18
63 0 38 3 78 6 89 4 15 47 36 182 88 97 37 281 108 407 157 127 49 231 90 232
90 1 0 182 -69 403 -154z m-150 -155 c129 -51 310 -121 401 -157 l167 -66 -8
-31 c-4 -18 -18 -53 -30 -79 l-23 -47 19 -53 20 -53 -31 -60 c-29 -57 -34 -62
-115 -102 l-85 -42 -3 65 c-2 55 1 72 22 107 22 39 23 45 11 81 -7 21 -25 50
-39 65 -14 15 -28 44 -32 69 -10 66 -24 60 -24 -11 0 -71 -19 -101 -62 -95
-32 4 -39 53 -8 61 11 3 27 21 35 41 20 48 20 140 -1 157 -13 11 -24 3 -76
-52 -86 -91 -98 -132 -52 -174 24 -23 25 -25 8 -30 -11 -3 -36 -14 -56 -24
-37 -19 -38 -19 -95 4 -32 13 -75 27 -95 30 l-38 7 0 58 c0 53 3 61 31 84 17
14 37 26 45 26 25 0 77 -30 117 -69 l38 -36 -7 30 c-27 116 -88 206 -149 221
-15 4 -50 1 -77 -6 -27 -6 -51 -10 -54 -7 -8 8 24 77 35 77 6 0 11 7 11 15 0
26 -76 23 -104 -5 -16 -16 -17 -23 -7 -51 16 -46 16 -46 -36 -52 -81 -9 -108
14 -91 77 4 16 6 31 4 33 -2 2 -20 -19 -41 -47 -80 -109 -41 -202 95 -225 57
-9 63 -16 55 -72 l-6 -50 -58 -17 c-31 -9 -70 -25 -86 -35 -28 -16 -30 -16
-47 1 -10 10 -30 20 -45 24 -56 12 -57 13 -29 39 44 41 36 73 -40 160 -84 96
-98 96 -102 0 -2 -77 11 -114 46 -130 34 -15 26 -65 -12 -65 -30 0 -39 9 -71
68 -15 28 -34 52 -42 52 -18 0 -17 -66 3 -121 8 -24 23 -110 34 -191 18 -140
38 -208 62 -208 7 0 9 25 4 84 -8 100 5 121 28 43 26 -88 36 -192 30 -282 l-7
-85 -53 0 -53 0 10 29 c14 39 2 60 -61 106 -27 20 -50 44 -50 54 0 9 13 27 30
39 87 64 76 105 -42 162 -99 49 -118 65 -148 130 -23 49 -23 52 -7 85 22 47
21 80 -3 119 -10 18 -22 50 -25 72 l-7 39 124 48 c67 26 251 96 408 157 157
60 290 108 295 106 6 -2 116 -45 245 -95z m-222 -344 l3 -37 -41 0 c-34 0 -41
3 -36 16 3 9 6 24 6 34 0 10 8 21 18 23 36 10 47 2 50 -36z m102 -126 c92 -30
101 -37 71 -61 -40 -34 -84 -21 -168 48 l-43 34 -46 -41 c-62 -54 -110 -69
-152 -47 -18 9 -32 20 -32 25 0 10 84 47 137 61 54 13 157 5 233 -19z m430 -3
c-1 -18 -7 -44 -15 -58 -9 -15 -14 -54 -15 -102 0 -85 -6 -108 -26 -108 -11 0
-14 26 -14 134 0 143 7 166 51 166 15 0 19 -7 19 -32z m-444 -98 c20 -7 44
-10 55 -7 16 4 19 0 19 -33 0 -46 -42 -195 -71 -253 -30 -59 -87 -135 -111
-148 -16 -9 -25 -6 -45 13 -70 64 -151 245 -168 377 -7 50 -6 53 13 46 32 -10
93 11 141 50 l43 34 45 -34 c24 -19 60 -39 79 -45z m349 -120 c0 -162 5 -199
19 -126 11 60 27 61 87 5 l54 -50 -31 -27 c-17 -15 -46 -39 -64 -55 -29 -25
-32 -32 -27 -67 l5 -40 -54 0 c-52 0 -54 1 -54 28 0 55 22 468 26 501 5 32 7
33 22 17 15 -14 17 -41 17 -186z m-725 128 c17 -35 30 -72 30 -83 0 -40 41
-168 76 -237 20 -39 56 -92 81 -119 l46 -49 -115 0 -115 0 -7 73 c-9 94 -24
183 -47 282 -19 80 -25 176 -12 188 17 18 36 2 63 -55z m578 11 c2 -24 -6 -84
-17 -134 -27 -118 -39 -193 -47 -287 l-7 -78 -114 0 -115 0 46 51 c59 66 111
174 138 286 42 180 108 272 116 162z m-644 -358 c23 -121 22 -141 -9 -141
l-25 0 0 122 c0 139 11 145 34 19z m674 -18 l-3 -118 -25 0 c-22 0 -25 4 -22
30 8 75 35 205 43 205 6 0 8 -50 7 -117z"/>
<path d="M2407 3380 c-4 -14 -14 -20 -34 -21 l-28 0 22 -15 c18 -13 20 -20 13
-40 -9 -24 -9 -24 16 -8 19 13 28 14 37 5 17 -17 29 -13 22 8 -4 13 1 24 17
35 l22 16 -32 0 c-21 0 -32 5 -32 14 0 24 -17 28 -23 6z"/>
<path d="M2095 3279 c5 -20 2 -28 -17 -37 l-23 -11 23 -7 c12 -3 22 -14 22
-25 0 -23 18 -25 27 -3 4 11 13 13 37 8 l31 -6 -19 21 c-15 16 -17 24 -8 33
19 19 14 28 -10 19 -18 -7 -29 -4 -46 13 l-24 21 7 -26z"/>
<path d="M2711 3286 c-11 -12 -23 -16 -43 -12 -25 5 -27 4 -16 -14 10 -15 9
-23 -7 -40 -18 -20 -18 -20 12 -14 25 5 34 1 47 -17 l16 -23 0 26 c0 20 6 28
28 33 24 7 25 8 7 15 -11 4 -22 19 -25 35 -5 26 -6 27 -19 11z"/>
<path d="M1830 3167 c0 -21 -6 -28 -27 -34 l-28 -7 33 -8 c23 -6 32 -14 32
-30 0 -20 1 -20 20 -3 11 10 28 15 40 12 24 -6 26 5 5 23 -14 11 -14 15 2 33
18 20 17 20 -11 13 -20 -5 -34 -2 -47 10 -18 16 -19 16 -19 -9z"/>
<path d="M2981 3176 c-10 -12 -22 -15 -38 -11 -21 5 -23 3 -14 -12 7 -13 5
-23 -6 -35 -15 -17 -14 -18 15 -18 18 0 35 -7 40 -15 7 -13 10 -12 20 10 7 15
20 25 34 26 21 1 21 1 -4 10 -18 7 -28 19 -30 36 -3 24 -4 25 -17 9z"/>
<path d="M2287 2532 c-16 -17 -14 -21 26 -59 23 -22 53 -43 65 -46 22 -5 23
-3 17 21 -6 25 -71 102 -85 102 -4 0 -14 -8 -23 -18z"/>
<path d="M2468 2513 c-20 -21 -40 -50 -43 -65 -6 -24 -5 -26 17 -21 12 3 42
24 65 46 40 38 42 42 26 59 -22 24 -23 24 -65 -19z"/>
<path d="M2355 2388 c-11 -6 -33 -24 -49 -40 -29 -29 -29 -29 -9 -49 20 -20
20 -20 61 25 56 61 55 96 -3 64z"/>
<path d="M2425 2378 c4 -13 23 -40 43 -60 34 -36 37 -37 54 -21 23 21 22 23
-30 67 -51 42 -77 47 -67 14z"/>
<path d="M2010 1676 c0 -2 8 -10 18 -17 15 -13 16 -12 3 4 -13 16 -21 21 -21
13z"/>
<path d="M2085 1590 c10 -11 20 -20 23 -20 3 0 -3 9 -13 20 -10 11 -20 20 -23
20 -3 0 3 -9 13 -20z"/>
<path d="M2175 1490 c10 -11 20 -20 23 -20 3 0 -3 9 -13 20 -10 11 -20 20 -23
20 -3 0 3 -9 13 -20z"/>
<path d="M3856 3045 c-14 -36 -26 -71 -26 -78 0 -8 15 -18 33 -24 l34 -10 28
75 c26 72 27 76 9 89 -35 26 -51 16 -78 -52z"/>
<path d="M3730 2725 c-22 -48 -40 -90 -40 -95 0 -4 35 -23 78 -42 l77 -35 37
78 c59 127 69 109 -99 176 -8 3 -28 -27 -53 -82z"/>
<path d="M1469 1859 c-35 -28 -65 -54 -66 -57 -1 -4 26 -44 61 -89 l63 -81 69
54 c38 29 68 59 66 65 -4 16 -115 159 -123 159 -4 0 -35 -23 -70 -51z"/>
</g>
</svg>
