<svg width="155" height="48" viewBox="0 0 155 48" fill="none" xmlns="http://www.w3.org/2000/svg">
<path d="M133.222 19.5225C131.861 17.6387 129.632 15.9424 126.338 15.9424C122.363 15.9424 118.418 18.9208 118.418 23.5365V23.5956C118.418 28.1817 122.363 31.1306 126.338 31.1306C129.602 31.1306 131.802 29.4046 133.222 27.4223V29.7498C133.222 33.8625 130.539 35.9632 126.762 35.9632C124.336 35.9632 122.077 35.1742 120.105 33.7047L119.168 34.9572C121.427 36.5944 123.981 37.4031 126.733 37.4031C129.159 37.4031 131.289 36.6535 132.709 35.2728C134.031 33.9808 134.81 32.1661 134.81 29.8386V16.3172H133.222V19.5225ZM133.321 23.5759C133.321 27.2152 129.928 29.6709 126.506 29.6709C123.113 29.6709 120.135 27.156 120.135 23.5463V23.4872C120.135 19.7493 123.044 17.4316 126.506 17.4316C129.928 17.4316 133.321 19.8183 133.321 23.5266V23.5759Z" fill="white"/>
<path d="M153.065 16.3174L147.118 30.6377L140.264 16.3174H138.419L146.339 32.2354C145.116 35.0264 143.982 36.0028 142.266 36.0028C141.033 36.0028 140.323 35.8154 139.455 35.4111L138.903 36.7622C139.997 37.2356 140.905 37.4526 142.167 37.4526C144.524 37.4526 146.211 36.2593 147.661 32.8962L154.801 16.3174H153.065Z" fill="white"/>
<path d="M109.601 20.8736V16.3171H108.014V32.3338H109.601V25.7752C109.601 20.5679 112.925 17.7669 116.742 17.7669H116.9V16.0706C113.645 15.9424 110.893 18.0135 109.601 20.8736Z" fill="white"/>
<path d="M52.9515 23.5759C53.2375 20.0254 55.7623 17.3626 59.0268 17.3626C62.8041 17.3626 64.7174 20.3509 64.9442 23.5759H52.9515ZM66.6504 24.3255C66.6504 19.5816 63.7114 15.9424 59.0859 15.9424C54.6281 15.9424 51.265 19.6507 51.265 24.2959V24.3551C51.265 29.3455 55.0127 32.7085 59.3424 32.7085C62.5082 32.7085 64.4807 31.456 66.1573 29.6906L65.0626 28.7537C63.7016 30.164 61.9559 31.2686 59.4114 31.2686C56.1765 31.2686 53.2375 28.9411 52.9515 24.9567H66.6209C66.6504 24.7002 66.6504 24.6115 66.6504 24.3255Z" fill="white"/>
<path d="M96.4844 15.9424C92.0265 15.9424 88.6635 19.6507 88.6635 24.2959V24.3551C88.6635 29.3455 92.4112 32.7085 96.7408 32.7085C99.9066 32.7085 101.879 31.456 103.556 29.6906L102.461 28.7537C101.1 30.164 99.3543 31.2686 96.8098 31.2686C93.5749 31.2686 90.6359 28.9411 90.3499 24.9567H104.019C104.049 24.7002 104.049 24.6115 104.049 24.3255C104.049 19.5816 101.1 15.9424 96.4844 15.9424ZM90.3401 23.5759C90.6261 20.0254 93.1509 17.3626 96.4153 17.3626C100.193 17.3626 102.106 20.3509 102.333 23.5759H90.3401Z" fill="white"/>
<path d="M78.1599 15.9424C75.1519 15.9424 73.3174 17.4218 72.2129 19.3055V16.327H70.625V32.3436H72.2129V23.0828C72.2129 19.7592 74.6982 17.3724 77.9331 17.3724C81.2567 17.3724 83.17 19.5422 83.17 22.8362V32.3535H84.7579V22.5601C84.748 18.7039 82.3317 15.9424 78.1599 15.9424Z" fill="white"/>
<path d="M19.1233 19.6407C18.7584 19.2462 18.3244 18.9306 17.8214 18.6939C17.3185 18.4572 16.7464 18.3389 16.1054 18.3389C14.9022 18.3389 13.9159 18.7531 13.1368 19.5815C12.3576 20.41 11.8744 21.4948 11.7067 22.8263H20.8196C20.4646 21.9978 20.2772 21.5836 20.0208 21.051C19.6953 20.3508 19.4882 20.0451 19.1233 19.6407Z" fill="white"/>
<path d="M23.1768 0.823242C10.3753 0.823242 0 11.1985 0 24C0 36.8015 10.3753 47.1768 23.1768 47.1768C35.9782 47.1768 46.3535 36.8015 46.3535 24C46.3535 11.1985 35.9782 0.823242 23.1768 0.823242ZM24.8139 32.7973L21.9045 25.4005H11.7462C11.9632 26.8009 12.5154 27.8661 13.4031 28.6058C14.2907 29.3454 15.3657 29.7202 16.6281 29.7202C17.5946 29.7202 18.4231 29.5526 19.1332 29.2074C19.8432 28.8622 20.5336 28.3592 21.224 27.6886L22.3878 30.7361C21.3325 31.7124 21.0958 31.8111 20.6027 32.0478C19.4586 32.5902 18.137 32.9157 16.5788 32.9157C15.3558 32.9157 14.2217 32.6987 13.1565 32.2746C12.1012 31.8406 11.1742 31.239 10.395 30.4698C9.61589 29.7005 9.00442 28.7636 8.55074 27.6787C8.09707 26.5938 7.8801 25.3906 7.8801 24.0789V24.0197C7.8801 22.7968 8.08721 21.6429 8.49157 20.5679C8.89593 19.4929 9.46795 18.5559 10.2076 17.7472C10.9473 16.9385 11.8152 16.3073 12.8212 15.8438C13.8272 15.3802 14.9416 15.1534 16.1547 15.1534C17.5058 15.1534 18.6893 15.3999 19.7052 15.8931C20.721 16.3862 21.5692 17.0568 22.2398 17.8951C22.9105 18.7335 23.4233 19.7098 23.7685 20.8144C23.7882 20.8736 23.7981 20.9426 23.8178 21.0018L27.3683 29.7005L32.7236 15.6465H36.7968L29.8635 32.8072H24.8139V32.7973ZM36.4615 32.9157C35.3372 32.9157 34.4298 32.0083 34.4298 30.884C34.4298 29.7597 35.3372 28.8523 36.4615 28.8523C37.5858 28.8523 38.4931 29.7597 38.4931 30.884C38.4931 32.0083 37.5759 32.9157 36.4615 32.9157Z" fill="white"/>
</svg>
