<svg width="176" height="53" viewBox="0 0 176 53" fill="none" xmlns="http://www.w3.org/2000/svg">
<path d="M150.846 21.1731C149.305 19.0401 146.781 17.1194 143.052 17.1194C138.551 17.1194 134.084 20.4919 134.084 25.7181V25.7851C134.084 30.9779 138.551 34.3168 143.052 34.3168C146.748 34.3168 149.238 32.3626 150.846 30.118V32.7534C150.846 37.4102 147.809 39.7888 143.532 39.7888C140.785 39.7888 138.227 38.8954 135.994 37.2315L134.933 38.6497C137.49 40.5035 140.383 41.4192 143.498 41.4192C146.245 41.4192 148.658 40.5705 150.266 39.0071C151.762 37.5442 152.644 35.4894 152.644 32.8539V17.5437H150.846V21.1731ZM150.958 25.7628C150.958 29.8835 147.116 32.6641 143.241 32.6641C139.4 32.6641 136.027 29.8165 136.027 25.7293V25.6623C136.027 21.4299 139.322 18.8056 143.241 18.8056C147.116 18.8056 150.958 21.5081 150.958 25.707V25.7628Z" fill="#0E2B2E"/>
<path d="M173.315 17.5437L166.581 33.7584L158.82 17.5437H156.731L165.699 35.5675C164.314 38.7278 163.03 39.8334 161.087 39.8334C159.691 39.8334 158.887 39.6212 157.904 39.1634L157.279 40.6933C158.518 41.2293 159.546 41.475 160.975 41.475C163.644 41.475 165.554 40.1237 167.195 36.3157L175.28 17.5437H173.315Z" fill="#0E2B2E"/>
<path d="M124.101 22.7029V17.5436H122.303V35.6791H124.101V28.253C124.101 22.3567 127.864 19.1852 132.186 19.1852H132.365V17.2644C128.679 17.1193 125.564 19.4644 124.101 22.7029Z" fill="#0E2B2E"/>
<path d="M59.9567 25.7628C60.2805 21.7426 63.1393 18.7275 66.8356 18.7275C71.1127 18.7275 73.2791 22.1111 73.5359 25.7628H59.9567ZM75.4679 26.6115C75.4679 21.2401 72.14 17.1194 66.9026 17.1194C61.8551 17.1194 58.0471 21.3182 58.0471 26.578V26.645C58.0471 32.2956 62.2906 36.1036 67.193 36.1036C70.7776 36.1036 73.0111 34.6854 74.9095 32.6864L73.6699 31.6256C72.1289 33.2225 70.1523 34.4732 67.2712 34.4732C63.6083 34.4732 60.2805 31.8377 59.9567 27.3262H75.4344C75.4679 27.0358 75.4679 26.9353 75.4679 26.6115Z" fill="#0E2B2E"/>
<path d="M109.249 17.1194C104.201 17.1194 100.393 21.3182 100.393 26.578V26.645C100.393 32.2956 104.636 36.1036 109.539 36.1036C113.124 36.1036 115.357 34.6854 117.255 32.6864L116.016 31.6256C114.475 33.2225 112.498 34.4732 109.617 34.4732C105.954 34.4732 102.626 31.8377 102.303 27.3262H117.78C117.814 27.0358 117.814 26.9353 117.814 26.6115C117.814 21.2401 114.475 17.1194 109.249 17.1194ZM102.291 25.7628C102.615 21.7426 105.474 18.7275 109.17 18.7275C113.447 18.7275 115.614 22.1111 115.871 25.7628H102.291Z" fill="#0E2B2E"/>
<path d="M88.4999 17.1194C85.0939 17.1194 83.0168 18.7945 81.7661 20.9274V17.5549H79.9682V35.6904H81.7661V25.2044C81.7661 21.4411 84.5802 18.7386 88.2431 18.7386C92.0064 18.7386 94.1729 21.1954 94.1729 24.9252V35.7016H95.9708V24.6126C95.9596 20.2462 93.2236 17.1194 88.4999 17.1194Z" fill="#0E2B2E"/>
<path d="M21.6532 21.3071C21.24 20.8604 20.7486 20.503 20.1791 20.235C19.6096 19.967 18.9619 19.833 18.236 19.833C16.8736 19.833 15.7569 20.302 14.8747 21.2401C13.9925 22.1781 13.4453 23.4065 13.2554 24.9141H23.5739C23.1719 23.976 22.9597 23.507 22.6694 22.904C22.3008 22.1111 22.0663 21.7649 21.6532 21.3071Z" fill="#0E2B2E"/>
<path d="M26.2429 0C11.7479 0 0 11.7479 0 26.2429C0 40.7379 11.7479 52.4858 26.2429 52.4858C40.7379 52.4858 52.4858 40.7379 52.4858 26.2429C52.4858 11.7479 40.7379 0 26.2429 0ZM28.0966 36.204L24.8023 27.8286H13.3001C13.5458 29.4144 14.1712 30.6204 15.1762 31.458C16.1812 32.2955 17.3985 32.7198 18.8279 32.7198C19.9223 32.7198 20.8603 32.53 21.6643 32.1391C22.4684 31.7483 23.2501 31.1788 24.0318 30.4194L25.3495 33.8701C24.1546 34.9756 23.8866 35.0873 23.3282 35.3553C22.0329 35.9695 20.5364 36.338 18.772 36.338C17.3873 36.338 16.1031 36.0923 14.897 35.6121C13.7021 35.1208 12.6524 34.4396 11.7702 33.5685C10.888 32.6975 10.1956 31.6366 9.68195 30.4082C9.16826 29.1798 8.92258 27.8174 8.92258 26.3322V26.2652C8.92258 24.8805 9.15709 23.5739 9.61494 22.3567C10.0728 21.1395 10.7205 20.0786 11.558 19.1629C12.3956 18.2472 13.3783 17.5325 14.5173 17.0076C15.6564 16.4828 16.9183 16.2259 18.2918 16.2259C19.8217 16.2259 21.1618 16.5051 22.312 17.0635C23.4622 17.6218 24.4226 18.3812 25.182 19.3304C25.9414 20.2796 26.5221 21.3852 26.9129 22.6359C26.9352 22.7029 26.9464 22.7811 26.9687 22.8481L30.9889 32.6975L37.0527 16.7843H41.6648L33.8142 36.2152H28.0966V36.204ZM41.2851 36.338C40.012 36.338 38.9846 35.3106 38.9846 34.0376C38.9846 32.7645 40.012 31.7371 41.2851 31.7371C42.5581 31.7371 43.5855 32.7645 43.5855 34.0376C43.5855 35.3106 42.547 36.338 41.2851 36.338Z" fill="#0E2B2E"/>
</svg>
